<svg width="12" height="12" viewBox="0 0 12 12" fill="none" xmlns="http://www.w3.org/2000/svg">
<path fill-rule="evenodd" clip-rule="evenodd" d="M6 0.5C9.03757 0.5 11.5 2.96243 11.5 6C11.5 9.03757 9.03757 11.5 6 11.5C2.96243 11.5 0.5 9.03757 0.5 6C0.5 2.96243 2.96243 0.5 6 0.5ZM6.25003 3.50006C6.3881 3.50006 6.50003 3.61199 6.50003 3.75006V5.50006H8.25003C8.3881 5.50006 8.50003 5.61199 8.50003 5.75006V6.25006C8.50003 6.38813 8.3881 6.50006 8.25003 6.50006H5.75003C5.61196 6.50006 5.50003 6.38813 5.50003 6.25006V3.75006C5.50003 3.61199 5.61196 3.50006 5.75003 3.50006H6.25003Z" fill="#1E80FF"/>
</svg>
