<svg id="_图层_2" data-name="图层 2" xmlns="http://www.w3.org/2000/svg" xmlns:xlink="http://www.w3.org/1999/xlink" viewBox="0 0 337.77 375.58"><defs><linearGradient id="_未命名的渐变_1449" data-name="未命名的渐变 1449" x1="252.94" y1="334.26" x2="84.83" y2="43.09" gradientUnits="userSpaceOnUse"><stop offset="0" stop-color="#fffddf"/><stop offset=".07" stop-color="#fdecbf"/><stop offset=".19" stop-color="#fbd38e"/><stop offset=".25" stop-color="#fbca7b"/></linearGradient><linearGradient id="_未命名的渐变_199" data-name="未命名的渐变 199" x1="252.94" y1="330.55" x2="84.83" y2="39.37" gradientUnits="userSpaceOnUse"><stop offset=".48" stop-color="#ffecd1"/><stop offset=".55" stop-color="#ffde92"/><stop offset=".62" stop-color="#ffd25c"/><stop offset=".67" stop-color="#ffca3a"/><stop offset=".7" stop-color="#ffc82e"/><stop offset="1" stop-color="#faf116"/></linearGradient><linearGradient id="_未命名的渐变_1722" data-name="未命名的渐变 1722" x1="252.29" y1="330.92" x2="168.53" y2="185.85" gradientUnits="userSpaceOnUse"><stop offset="0" stop-color="#fdd22d"/><stop offset=".1" stop-color="#fac225"/><stop offset=".19" stop-color="#f9b820"/><stop offset=".65" stop-color="#eebc31"/><stop offset="1" stop-color="#eabe39"/></linearGradient><linearGradient id="_未命名的渐变_1524" data-name="未命名的渐变 1524" x1="95.91" y1="313.24" x2="241.86" y2="60.43" gradientUnits="userSpaceOnUse"><stop offset=".4" stop-color="#0b0d14"/><stop offset=".94" stop-color="#3a3436"/></linearGradient><linearGradient id="_未命名的渐变_1553" data-name="未命名的渐变 1553" x1="238.14" y1="246.15" x2="28.02" y2="100.22" gradientUnits="userSpaceOnUse"><stop offset="0"/><stop offset=".21" stop-color="#020202"/><stop offset=".37" stop-color="#0c0a08"/><stop offset=".5" stop-color="#1b1814"/><stop offset=".62" stop-color="#312c25"/><stop offset=".73" stop-color="#4e463a"/><stop offset=".84" stop-color="#706553"/><stop offset=".86" stop-color="#7a6e5b"/></linearGradient><linearGradient id="_未命名的渐变_1544" data-name="未命名的渐变 1544" x1="241.86" y1="313.24" x2="171.22" y2="190.88" gradientUnits="userSpaceOnUse"><stop offset="0" stop-color="#3f3836"/><stop offset=".41"/><stop offset="1" stop-color="#211f1d"/></linearGradient><linearGradient id="_未命名的渐变_1736" data-name="未命名的渐变 1736" x1="312.71" y1="103.8" x2="25.06" y2="269.87" gradientUnits="userSpaceOnUse"><stop offset="0" stop-color="#ac5a04"/><stop offset=".09" stop-color="#b2640f"/><stop offset=".25" stop-color="#c27f2c"/><stop offset=".47" stop-color="#dcab5c"/><stop offset=".71" stop-color="#ffe59c"/></linearGradient><linearGradient id="_未命名的渐变_1718" data-name="未命名的渐变 1718" x1="875.94" y1="215.67" x2="816.5" y2="156.22" gradientTransform="translate(-630.67) skewX(5)" gradientUnits="userSpaceOnUse"><stop offset=".29" stop-color="#fdd34d"/><stop offset=".66" stop-color="#eda831"/></linearGradient><linearGradient id="_未命名的渐变_1718-2" data-name="未命名的渐变 1718" x1="811.13" y1="219.29" x2="766.68" y2="174.84" xlink:href="#_未命名的渐变_1718"/><style>.cls-10{stroke-width:0;fill:#ffe59c}</style></defs><g id="_图层_1-2" data-name="图层 1"><path d="M156.71 25.33 32.35 97.13a18.823 18.823 0 0 0-9.42 16.31S160.35 34.1 160.35 34.1a17.048 17.048 0 0 1 17.06 0l137.43 79.34c0-6.73-3.59-12.95-9.42-16.31l-124.36-71.8a24.33 24.33 0 0 0-24.34 0Z" style="fill:#111115;stroke-width:0"/><path d="M337.77 278.04V99.3c0-4.5-2.41-8.65-6.31-10.89L189.73 7.32a41.97 41.97 0 0 0-41.69 0L6.31 88.42C2.41 90.65 0 94.81 0 99.31v178.74c0 4.5 2.41 8.65 6.31 10.88l141.75 81.11a41.944 41.944 0 0 0 41.65 0l141.75-81.11c3.9-2.23 6.31-6.39 6.31-10.89Z" style="fill:url(#_未命名的渐变_1449);stroke-width:0"/><path d="M337.77 274.33V95.59c0-4.5-2.41-8.65-6.31-10.89L196.06 7.22a54.716 54.716 0 0 0-54.34 0L6.31 84.71C2.41 86.94 0 91.1 0 95.6v178.74c0 4.5 2.41 8.65 6.31 10.88l135.4 77.48a54.716 54.716 0 0 0 54.34 0l135.4-77.48c3.9-2.23 6.31-6.39 6.31-10.89Z" style="fill:url(#_未命名的渐变_199);stroke-width:0"/><path d="M2.41 281.76a12.53 12.53 0 0 0 3.84 3.42l135.97 77.8c16.44 9.41 36.89 9.41 53.34 0l135.96-77.8c3.88-2.22 6.26-6.25 6.26-10.6V95.33l-.3-.17L2.41 281.76Z" style="fill:url(#_未命名的渐变_1722);stroke-width:0"/><path d="M314.84 260.23V113.44c0-6.73-3.59-12.94-9.41-16.31L178.3 23.74c-5.83-3.36-13-3.36-18.83 0L32.34 97.13a18.814 18.814 0 0 0-9.41 16.31v146.79c0 6.73 3.59 12.94 9.41 16.31l127.13 73.4c5.83 3.36 13 3.36 18.83 0l127.13-73.4c5.83-3.36 9.41-9.58 9.41-16.31Z" style="fill:url(#_未命名的渐变_1524);stroke-width:0"/><path d="M164.66 21.72c-1.8.41-3.55 1.06-5.19 2.01L32.34 97.13a18.814 18.814 0 0 0-9.41 16.31v146.79c0 6.73 3.59 12.94 9.41 16.31l127.13 73.4c1.64.95 3.4 1.6 5.19 2.01V21.72Z" style="fill:url(#_未命名的渐变_1553);stroke-width:0"/><path d="M28.34 273.37c1.22 1.26 2.61 2.37 4.16 3.26l122.43 70.69a27.9 27.9 0 0 0 27.89 0l118.06-68.16A27.894 27.894 0 0 0 314.83 255V113.62c0-1.8-.27-3.56-.75-5.24L28.34 273.37Z" style="fill:url(#_未命名的渐变_1544);stroke-width:0"/><path d="M314.84 260.23V113.44c0-6.73-3.59-12.94-9.41-16.31L178.3 23.74c-5.83-3.36-13-3.36-18.83 0L32.34 97.13a18.814 18.814 0 0 0-9.41 16.31v146.79c0 6.73 3.59 12.94 9.41 16.31l127.13 73.4c5.83 3.36 13 3.36 18.83 0l127.13-73.4c5.83-3.36 9.41-9.58 9.41-16.31Z" style="fill:none;stroke:url(#_未命名的渐变_1736);stroke-miterlimit:10;stroke-width:.91px"/><path d="M197.62 239.1c1.42-16.15 2.86-32.3 4.24-48.46.24-2.83 2.11-3.12 4.47-3.12 15.22.03 30.45.04 45.66-.02 12.59-.05 18.77-7.99 16.16-20.56-.67-3.24-2.68-5.26-5.7-6.46-2.24-.89-4.53-.9-6.82-.9-15.48 0-30.96-.08-46.42 0-3.39.02-4.53-.91-4.07-4.46 1.13-8.74 5.79-13.2 14.69-13.22 13.19-.04 26.38-.08 39.58.04 3.92.04 7.9.33 11.81.98 8.8 1.48 14.8 6.76 18.43 14.89.69 1.54 1.23 3.13 1.84 4.7.29 3.29.57 6.57.86 9.86-.25 1.33-.53 2.66-.74 4-2.58 15.99-14.64 29.93-34.55 28.88-10.28-.54-20.52-.01-30.79-.14-3.05-.04-4.58.79-4.72 4.05-.21 4.99-1.13 9.9-1.28 14.9-.21 7.18-3.21 12.23-9.68 15.04h-12.95Z" style="fill:url(#_未命名的渐变_1718);stroke-width:0"/><path d="M153.44 239.1c2.42-25.35 4.84-50.69 7.27-76.04.3-3.11.53-6.23.97-9.3 1.04-7.27 5.86-11.74 13.28-11.79 11.09-.08 9.86-1.48 8.85 9.22-2.3 24.36-4.87 48.67-6.99 73.05-.64 7.32-3.54 12.4-10.42 14.86h-12.95Z" style="stroke-width:0;fill:url(#_未命名的渐变_1718-2)"/><path class="cls-10" d="M148.76 141.89c-5.19.09-10.4.25-15.61-.05-3.7-.21-5.6 1.23-7.15 4.34-9.51 19.09-19.22 38.07-28.87 57.08-1.21 2.38-2.22 5.49-5.54 5.04-3.55-.49-3.64-4.11-4.45-6.69-5.79-18.48-11.52-36.97-17.16-55.48-.88-2.9-2.11-4.39-5.38-4.25-5.55.24-11.16.14-16.75.05-2.69-.04-3.16.94-2.29 3.46 6.88 19.94 13.71 39.89 20.47 59.86 3.82 11.27 8.01 22.44 11.23 33.85h17.52c4.39-1.79 7.3-4.97 9.51-9.11 6.09-11.38 12.4-22.63 18.64-33.92 9.35-16.94 18.68-33.89 28.1-50.79 1.54-2.76.66-3.45-2.27-3.4ZM219.83 141.9c-8.9.03-13.56 4.48-14.69 13.22-.46 3.55.68 4.48 4.07 4.46 4.53-.02 9.06 0 13.58 0l29.03-17.65c-10.67-.05-21.33-.06-32-.03ZM174.96 141.97c-7.41.05-12.23 4.52-13.28 11.79-.44 3.07-.67 6.2-.97 9.3l-3.48 36.39 23.25-14.14c1.12-11.37 2.26-22.75 3.33-34.13 1.01-10.7 2.24-9.3-8.85-9.22Z"/></g></svg>